<svg width="25" height="24" viewBox="0 0 25 24" fill="none" xmlns="http://www.w3.org/2000/svg">
<path d="M20 5.625H17.1997L15.8113 3.54187C15.7771 3.49064 15.7308 3.44861 15.6765 3.4195C15.6222 3.3904 15.5616 3.37511 15.5 3.375H9.5C9.43841 3.37511 9.37779 3.3904 9.3235 3.4195C9.26922 3.44861 9.22294 3.49064 9.18875 3.54187L7.79844 5.625H5C4.50272 5.625 4.02581 5.82254 3.67417 6.17417C3.32254 6.52581 3.125 7.00272 3.125 7.5V18C3.125 18.4973 3.32254 18.9742 3.67417 19.3258C4.02581 19.6775 4.50272 19.875 5 19.875H20C20.4973 19.875 20.9742 19.6775 21.3258 19.3258C21.6775 18.9742 21.875 18.4973 21.875 18V7.5C21.875 7.00272 21.6775 6.52581 21.3258 6.17417C20.9742 5.82254 20.4973 5.625 20 5.625ZM21.125 18C21.125 18.2984 21.0065 18.5845 20.7955 18.7955C20.5845 19.0065 20.2984 19.125 20 19.125H5C4.70163 19.125 4.41548 19.0065 4.2045 18.7955C3.99353 18.5845 3.875 18.2984 3.875 18V7.5C3.875 7.20163 3.99353 6.91548 4.2045 6.7045C4.41548 6.49353 4.70163 6.375 5 6.375H8C8.06175 6.37504 8.12256 6.35983 8.17702 6.33072C8.23149 6.30161 8.27791 6.2595 8.31219 6.20813L9.69969 4.125H15.2984L16.6878 6.20813C16.7221 6.2595 16.7685 6.30161 16.823 6.33072C16.8774 6.35983 16.9382 6.37504 17 6.375H20C20.2984 6.375 20.5845 6.49353 20.7955 6.7045C21.0065 6.91548 21.125 7.20163 21.125 7.5V18ZM15.875 12.75C15.875 12.8495 15.8355 12.9448 15.7652 13.0152C15.6948 13.0855 15.5995 13.125 15.5 13.125H12.875V15.75C12.875 15.8495 12.8355 15.9448 12.7652 16.0152C12.6948 16.0855 12.5995 16.125 12.5 16.125C12.4005 16.125 12.3052 16.0855 12.2348 16.0152C12.1645 15.9448 12.125 15.8495 12.125 15.75V13.125H9.5C9.40054 13.125 9.30516 13.0855 9.23483 13.0152C9.16451 12.9448 9.125 12.8495 9.125 12.75C9.125 12.6505 9.16451 12.5552 9.23483 12.4848C9.30516 12.4145 9.40054 12.375 9.5 12.375H12.125V9.75C12.125 9.65054 12.1645 9.55516 12.2348 9.48483C12.3052 9.41451 12.4005 9.375 12.5 9.375C12.5995 9.375 12.6948 9.41451 12.7652 9.48483C12.8355 9.55516 12.875 9.65054 12.875 9.75V12.375H15.5C15.5995 12.375 15.6948 12.4145 15.7652 12.4848C15.8355 12.5552 15.875 12.6505 15.875 12.75Z" fill="white"/>
</svg>
