<svg width="24" height="24" viewBox="0 0 24 24" fill="none" xmlns="http://www.w3.org/2000/svg">
<path d="M5.11111 8L12.1561 1.32577C12.349 1.14308 12.651 1.14308 12.8439 1.32577L19.8889 8M5.11111 8L3 10M5.11111 8V9M19.8889 8L22 10M19.8889 8V9M5.11111 9V20.5C5.11111 20.7761 5.33497 21 5.61111 21H19.3889C19.665 21 19.8889 20.7761 19.8889 20.5V9M5.11111 9H19.8889M15.6667 17.5V12.5C15.6667 12.2239 15.4428 12 15.1667 12H9.83333C9.55719 12 9.33333 12.2239 9.33333 12.5V17.5C9.33333 17.7761 9.55719 18 9.83333 18H15.1667C15.4428 18 15.6667 17.7761 15.6667 17.5Z" stroke="white" stroke-width="1.2" stroke-linecap="round"/>
</svg>
