<svg width="24" height="24" viewBox="0 0 24 24" fill="none" xmlns="http://www.w3.org/2000/svg">
<path d="M19 3H15.25C14.8522 3 14.4706 3.15804 14.1893 3.43934C13.908 3.72064 13.75 4.10218 13.75 4.5V19.5C13.75 19.8978 13.908 20.2794 14.1893 20.5607C14.4706 20.842 14.8522 21 15.25 21H19C19.3978 21 19.7794 20.842 20.0607 20.5607C20.342 20.2794 20.5 19.8978 20.5 19.5V4.5C20.5 4.10218 20.342 3.72064 20.0607 3.43934C19.7794 3.15804 19.3978 3 19 3ZM19 19.5H15.25V4.5H19V19.5ZM9.25 3H5.5C5.10218 3 4.72064 3.15804 4.43934 3.43934C4.15804 3.72064 4 4.10218 4 4.5V19.5C4 19.8978 4.15804 20.2794 4.43934 20.5607C4.72064 20.842 5.10218 21 5.5 21H9.25C9.64782 21 10.0294 20.842 10.3107 20.5607C10.592 20.2794 10.75 19.8978 10.75 19.5V4.5C10.75 4.10218 10.592 3.72064 10.3107 3.43934C10.0294 3.15804 9.64782 3 9.25 3ZM9.25 19.5H5.5V4.5H9.25V19.5Z" fill="white"/>
</svg>
