<svg width="24" height="24" viewBox="0 0 24 24" fill="none" xmlns="http://www.w3.org/2000/svg">
<path d="M19.7875 10.4839L6.28 2.22078C6.05227 2.08133 5.79144 2.0052 5.52445 2.00026C5.25746 1.99531 4.99399 2.06173 4.76125 2.19266C4.53073 2.32155 4.3387 2.50951 4.2049 2.73722C4.07111 2.96493 4.00039 3.22417 4 3.48828V20.0127C4.00174 20.4088 4.16072 20.7881 4.442 21.0671C4.72328 21.3461 5.10383 21.502 5.5 21.5005C5.77652 21.5003 6.04767 21.4241 6.28375 21.2802L19.7875 13.017C20.0046 12.8847 20.184 12.6988 20.3084 12.4772C20.4329 12.2555 20.4983 12.0056 20.4983 11.7514C20.4983 11.4972 20.4329 11.2473 20.3084 11.0256C20.184 10.804 20.0046 10.6181 19.7875 10.4858V10.4839ZM5.5 19.9948V3.50047L18.9841 11.7505L5.5 19.9948Z" fill="white"/>
</svg>
