<svg width="25" height="24" viewBox="0 0 25 24" fill="none" xmlns="http://www.w3.org/2000/svg">
<path d="M21.4923 5.51906C21.4218 5.43481 21.3338 5.36705 21.2343 5.32056C21.1349 5.27407 21.0264 5.24998 20.9166 5.25H5.79288L5.33444 2.73187C5.27165 2.38625 5.08955 2.07363 4.81988 1.84851C4.55022 1.62339 4.21009 1.50005 3.85881 1.5H2.16663C1.96771 1.5 1.77695 1.57902 1.6363 1.71967C1.49564 1.86032 1.41663 2.05109 1.41663 2.25C1.41663 2.44891 1.49564 2.63968 1.6363 2.78033C1.77695 2.92098 1.96771 3 2.16663 3H3.85413L6.25038 16.1522C6.32096 16.5422 6.49334 16.9067 6.75006 17.2087C6.39573 17.5397 6.13999 17.9623 6.01118 18.4298C5.88238 18.8972 5.88555 19.3912 6.02034 19.8569C6.15514 20.3226 6.41629 20.7419 6.77484 21.0683C7.13339 21.3947 7.57533 21.6154 8.05165 21.7059C8.52797 21.7965 9.02006 21.7533 9.47336 21.5813C9.92666 21.4092 10.3234 21.115 10.6197 20.7312C10.916 20.3474 11.1002 19.889 11.1519 19.407C11.2036 18.9249 11.1207 18.4379 10.9126 18H15.1707C15.0029 18.3513 14.9161 18.7357 14.9166 19.125C14.9166 19.6442 15.0706 20.1517 15.359 20.5834C15.6475 21.0151 16.0574 21.3515 16.5371 21.5502C17.0167 21.7489 17.5445 21.8008 18.0537 21.6996C18.5629 21.5983 19.0307 21.3483 19.3978 20.9812C19.7649 20.614 20.0149 20.1463 20.1162 19.6371C20.2175 19.1279 20.1655 18.6001 19.9668 18.1205C19.7681 17.6408 19.4317 17.2308 19 16.9424C18.5683 16.654 18.0608 16.5 17.5416 16.5H8.46381C8.28817 16.5 8.11811 16.4383 7.98328 16.3257C7.84845 16.2132 7.7574 16.0569 7.726 15.8841L7.42881 14.25H18.3038C18.8307 14.2499 19.3409 14.0649 19.7454 13.7272C20.1499 13.3896 20.4231 12.9206 20.5173 12.4022L21.6572 6.13406C21.6765 6.02572 21.6718 5.91447 21.6433 5.80818C21.6147 5.7019 21.5632 5.60319 21.4923 5.51906ZM9.66663 19.125C9.66663 19.3475 9.60065 19.565 9.47703 19.75C9.35341 19.935 9.17771 20.0792 8.97215 20.1644C8.76658 20.2495 8.54038 20.2718 8.32215 20.2284C8.10392 20.185 7.90346 20.0778 7.74613 19.9205C7.5888 19.7632 7.48165 19.5627 7.43824 19.3445C7.39483 19.1262 7.41711 18.9 7.50226 18.6945C7.58741 18.4889 7.7316 18.3132 7.91661 18.1896C8.10161 18.066 8.31912 18 8.54163 18C8.83999 18 9.12614 18.1185 9.33712 18.3295C9.5481 18.5405 9.66663 18.8266 9.66663 19.125ZM18.6666 19.125C18.6666 19.3475 18.6006 19.565 18.477 19.75C18.3534 19.935 18.1777 20.0792 17.9721 20.1644C17.7666 20.2495 17.5404 20.2718 17.3221 20.2284C17.1039 20.185 16.9035 20.0778 16.7461 19.9205C16.5888 19.7632 16.4817 19.5627 16.4382 19.3445C16.3948 19.1262 16.4171 18.9 16.5023 18.6945C16.5874 18.4889 16.7316 18.3132 16.9166 18.1896C17.1016 18.066 17.3191 18 17.5416 18C17.84 18 18.1261 18.1185 18.3371 18.3295C18.5481 18.5405 18.6666 18.8266 18.6666 19.125ZM19.0416 12.1341C19.0101 12.3074 18.9187 12.464 18.7833 12.5766C18.6479 12.6893 18.4771 12.7506 18.301 12.75H7.156L6.06569 6.75H20.0176L19.0416 12.1341Z" fill="white"/>
</svg>
