<svg width="43" height="40" viewBox="0 0 43 40" fill="none" xmlns="http://www.w3.org/2000/svg">
<path d="M41.22 18.2203L32.8671 25.5101L35.3693 36.3632C35.5017 36.9306 35.4639 37.5244 35.2606 38.0704C35.0574 38.6164 34.6977 39.0904 34.2265 39.4331C33.7554 39.7758 33.1936 39.972 32.6116 39.9972C32.0295 40.0224 31.4529 39.8755 30.9539 39.5747L21.488 33.8333L12.0424 39.5747C11.5434 39.8755 10.9668 40.0224 10.3847 39.9972C9.80267 39.972 9.24094 39.7758 8.76978 39.4331C8.29861 39.0904 7.93892 38.6164 7.73568 38.0704C7.53243 37.5244 7.49465 36.9306 7.62706 36.3632L10.1255 25.5212L1.7708 18.2203C1.32891 17.8392 1.00938 17.3361 0.852276 16.7741C0.695171 16.2121 0.707488 15.6163 0.88768 15.0613C1.06787 14.5062 1.40792 14.0168 1.86518 13.6543C2.32244 13.2917 2.87655 13.0723 3.45804 13.0234L14.4705 12.0696L18.7691 1.81651C18.9936 1.27852 19.3723 0.818964 19.8574 0.495722C20.3425 0.17248 20.9124 0 21.4954 0C22.0783 0 22.6483 0.17248 23.1334 0.495722C23.6185 0.818964 23.9972 1.27852 24.2216 1.81651L28.5333 12.0696L39.542 13.0234C40.1235 13.0723 40.6776 13.2917 41.1348 13.6543C41.5921 14.0168 41.9321 14.5062 42.1123 15.0613C42.2925 15.6163 42.3049 16.2121 42.1477 16.7741C41.9906 17.3361 41.6711 17.8392 41.2292 18.2203H41.22Z" fill="#FFCC00"/>
</svg>
