<svg width="25" height="24" viewBox="0 0 25 24" fill="none" xmlns="http://www.w3.org/2000/svg">
<path d="M22.7583 9.12093C22.6675 8.84098 22.4963 8.59394 22.2661 8.41057C22.0359 8.2272 21.7568 8.1156 21.4636 8.08968L15.8958 7.60968L13.7133 2.41968C13.5997 2.14735 13.408 1.91473 13.1625 1.75111C12.9169 1.58749 12.6284 1.50018 12.3333 1.50018C12.0382 1.50018 11.7498 1.58749 11.5042 1.75111C11.2586 1.91473 11.067 2.14735 10.9533 2.41968L8.77738 7.60968L3.20301 8.0925C2.90867 8.11723 2.62818 8.22832 2.39672 8.41182C2.16526 8.59533 1.99313 8.84309 1.90192 9.12404C1.81071 9.40498 1.80447 9.7066 1.884 9.99107C1.96352 10.2755 2.12527 10.5302 2.34895 10.7231L6.57801 14.4187L5.31051 19.9069C5.24349 20.1941 5.26261 20.4946 5.36549 20.771C5.46837 21.0474 5.65044 21.2874 5.88894 21.4608C6.12744 21.6343 6.41178 21.7336 6.70642 21.7464C7.00106 21.7591 7.29292 21.6847 7.54551 21.5325L12.3268 18.6262L17.1183 21.5325C17.3709 21.6847 17.6628 21.7591 17.9574 21.7464C18.252 21.7336 18.5364 21.6343 18.7749 21.4608C19.0134 21.2874 19.1955 21.0474 19.2983 20.771C19.4012 20.4946 19.4203 20.1941 19.3533 19.9069L18.0868 14.4131L22.3149 10.7231C22.5385 10.5295 22.7 10.2742 22.7789 9.98908C22.8578 9.704 22.8506 9.40196 22.7583 9.12093ZM21.3314 9.58968L17.1033 13.2797C16.8975 13.4587 16.7445 13.6904 16.6605 13.9499C16.5766 14.2094 16.5651 14.4869 16.6271 14.7525L17.8974 20.25L13.1096 17.3437C12.876 17.2015 12.6078 17.1262 12.3343 17.1262C12.0608 17.1262 11.7925 17.2015 11.5589 17.3437L6.7777 20.25L8.03957 14.7562C8.10159 14.4906 8.09002 14.2132 8.0061 13.9537C7.92218 13.6942 7.7691 13.4624 7.56332 13.2834L3.33332 9.59531C3.33298 9.59251 3.33298 9.58967 3.33332 9.58687L8.90582 9.105C9.17789 9.08102 9.43824 8.98321 9.6588 8.82213C9.87936 8.66104 10.0518 8.4428 10.1574 8.19093L12.3333 3.0075L14.5083 8.19093C14.614 8.4428 14.7863 8.66104 15.0069 8.82213C15.2275 8.98321 15.4878 9.08102 15.7599 9.105L21.3333 9.58687C21.3333 9.58687 21.3333 9.5925 21.3333 9.59343L21.3314 9.58968Z" fill="white"/>
</svg>
